<?xml version="1.0" standalone="no"?>
<!DOCTYPE svg PUBLIC "-//W3C//DTD SVG 1.1//EN" "http://www.w3.org/Graphics/SVG/1.1/DTD/svg11.dtd" >
<svg>
<metadata>
Created by FontForge 20090622 at Thu Jun 18 21:07:38 2015
 By deploy user
Copyright (c) Miles Inc., 1992. All rights reserved.
</metadata>
<defs>
<font id="AlpinGothicCGNo3" horiz-adv-x="389" >
  <font-face 
    font-family="Alpin Gothic CG No3"
    font-weight="400"
    font-stretch="normal"
    units-per-em="1000"
    panose-1="2 0 5 6 3 0 0 2 0 4"
    ascent="800"
    descent="-200"
    x-height="541"
    cap-height="728"
    bbox="-36 -245.148 997 949.429"
    underline-thickness="20"
    underline-position="-215"
    unicode-range="U+0020-U+FB02"
  />
<missing-glyph horiz-adv-x="280" 
 />
    <glyph glyph-name="fi" unicode="fi" horiz-adv-x="477" 
d="M187 0h-100v452h-78v89h78v35q0 30 1 45.5t8 40.5t20.5 37t40.5 22t67 10q17 0 53 -2v-88q-18 2 -28 2q-40 0 -51 -15t-11 -52v-35h85v-89h-85v-452zM444 622h-99v106h99v-106zM444 0h-99v541h99v-541z" />
    <glyph glyph-name="fl" unicode="fl" horiz-adv-x="467" 
d="M187 0h-100v452h-78v89h78v35q0 30 1 45.5t8 40.5t20.5 37t40.5 22t67 10q17 0 53 -2v-88q-18 2 -28 2q-40 0 -51 -15t-11 -52v-35h85v-89h-85v-452zM435 0h-99v731h99v-731z" />
    <glyph glyph-name=".notdef" horiz-adv-x="280" 
 />
    <glyph glyph-name=".null" horiz-adv-x="0" 
 />
    <glyph glyph-name="nonmarkingreturn" horiz-adv-x="333" 
 />
    <glyph glyph-name="space" unicode=" " horiz-adv-x="222" 
 />
    <glyph glyph-name="exclam" unicode="!" horiz-adv-x="278" 
d="M175 209h-72l-30 519h132zM193 0h-108v112h108v-112z" />
    <glyph glyph-name="quotedbl" unicode="&#x22;" horiz-adv-x="352" 
d="M115 475h-52l-28 253h118zM290 475h-52l-28 253h118z" />
    <glyph glyph-name="numbersign" unicode="#" horiz-adv-x="444" 
d="M109 -77h-79l44 301h-70l11 74h70l17 118h-87l11 75h87l37 260h80l-38 -260h103l37 260h81l-37 -260h68l-11 -75h-68l-17 -118h84l-11 -74h-84l-44 -301h-81l44 301h-103zM284 416h-103l-17 -118h103z" />
    <glyph glyph-name="dollar" unicode="$" horiz-adv-x="444" 
d="M270 -45h-95v124q-117 32 -117 166v26h98v-26q0 -32 16.5 -55.5t54.5 -23.5q28 0 45.5 17.5t17.5 47.5t-23 51.5t-55.5 37.5t-65 35t-55.5 54.5t-23 85.5q0 108 107 142v119h95v-120q65 -19 89 -60t24 -116h-95q0 1 -1.5 15.5t-2.5 21t-5 19.5t-10 19t-16.5 11.5
t-25.5 5.5q-25 0 -43 -16.5t-18 -40.5q0 -28 23 -49t56 -37t65.5 -35.5t55.5 -55.5t23 -87q0 -38 -10 -65.5t-32 -44.5t-35.5 -24t-41.5 -18v-124z" />
    <glyph glyph-name="percent" unicode="%" horiz-adv-x="741" 
d="M315 457q0 -133 -128 -133t-128 133v142q0 12 1 23t7.5 34t19 38.5t38.5 28t62 12.5q128 0 128 -136v-142zM256 -77h-75l286 829h75zM685 123q0 -133 -128 -133t-128 133v142q0 17 2.5 32t13 43t39.5 45t73 17q128 0 128 -137v-142zM135 599v-142q0 -68 52 -68
q51 0 51 68v142q0 71 -51 71q-23 0 -36 -17t-14.5 -29.5t-1.5 -24.5zM505 265v-142q0 -68 52 -68q51 0 51 68v142q0 71 -51 71q-23 0 -36 -17t-14.5 -29.5t-1.5 -24.5z" />
    <glyph glyph-name="ampersand" unicode="&#x26;" horiz-adv-x="519" 
d="M364 63q-30 -39 -59 -54q-37 -19 -89 -19q-80 0 -125 50.5t-45 130.5q0 41 10.5 77t33.5 68t32.5 43t32.5 35q-2 4 -12.5 21.5l-15 25t-13.5 24.5t-13 29l-9.5 28t-8 31.5t-2.5 30.5q0 70 42.5 111.5t112.5 41.5q63 0 108.5 -37.5t45.5 -115.5q0 -95 -115 -202l85 -139
q13 42 13 127h99q0 -68 -14.5 -133.5t-34.5 -93.5l89 -143h-112zM205 316l-5 -6q-5 -6 -6.5 -8l-7 -9t-8 -11.5t-7.5 -12.5t-7.5 -14.5t-6 -16.5t-5 -18.5t-3 -19.5t-1.5 -22q0 -40 18.5 -67t57.5 -27q33 0 57 20.5t32 38.5zM235 651q-24 0 -40.5 -18t-16.5 -49
q0 -44 45 -120q71 66 71 120q0 32 -15.5 49.5t-43.5 17.5z" />
    <glyph glyph-name="quotesingle" unicode="'" horiz-adv-x="204" 
d="M129 475h-52l-28 253h118z" />
    <glyph glyph-name="parenleft" unicode="(" horiz-adv-x="222" 
d="M202 -115h-91q-29 50 -63.5 177.5t-34.5 243.5q0 115 32.5 235.5t65.5 186.5h91q-25 -51 -57.5 -184t-32.5 -238q0 -103 30.5 -231t59.5 -190z" />
    <glyph glyph-name="parenright" unicode=")" horiz-adv-x="222" 
d="M104 -115h-91q27 53 58.5 179.5t31.5 241.5q0 114 -32 238.5t-58 183.5h91q31 -62 64.5 -181t33.5 -241t-34.5 -246.5t-63.5 -174.5z" />
    <glyph glyph-name="asterisk" unicode="*" horiz-adv-x="444" 
d="M223 540l-62 -112l-61 41l84 93l-121 26l24 67l112 -47l-14 120h76l-14 -120l112 47l24 -67l-121 -26l84 -93l-60 -41z" />
    <glyph glyph-name="plus" unicode="+" horiz-adv-x="741" 
d="M409 69h-78v193h-179v72h179v188h78v-188h179v-72h-179v-193z" />
    <glyph glyph-name="comma" unicode="," horiz-adv-x="222" 
d="M121 -133h-54l41 133h-45v120h118v-119z" />
    <glyph glyph-name="hyphen" unicode="-" horiz-adv-x="222" 
d="M201 248h-183v89h183v-89z" />
    <glyph glyph-name="period" unicode="." horiz-adv-x="222" 
d="M168 0h-116v117h116v-117z" />
    <glyph glyph-name="slash" unicode="/" horiz-adv-x="222" 
d="M91 -77h-72l109 828h73z" />
    <glyph glyph-name="zero" unicode="0" horiz-adv-x="444" 
d="M403 233q0 -25 -0.5 -40t-4 -44t-10 -47.5t-19.5 -41.5t-32 -37t-48.5 -23.5t-66.5 -9.5t-66.5 9.5t-48.5 23t-32 36.5t-19.5 41.5t-10 47.5t-4 44t-0.5 41v284q0 220 181 220t181 -220v-284zM145 517v-284q0 -26 0.5 -39t2.5 -34t7 -32.5t13 -23.5t21.5 -17.5t32.5 -5.5
t32.5 5.5t21.5 17.5t13 23.5t7 32.5t2.5 34t0.5 39v284q0 24 -0.5 37t-4.5 33.5t-11.5 31t-23 19t-37.5 8.5t-37 -8.5t-22.5 -19.5t-12 -30.5t-5 -33.5t-0.5 -37z" />
    <glyph glyph-name="one" unicode="1" horiz-adv-x="444" 
d="M307 0h-106v542h-134v79q78 0 107 25.5t40 81.5h93v-728z" />
    <glyph glyph-name="two" unicode="2" horiz-adv-x="444" 
d="M406 0h-368v95q3 3 45.5 56l59 74.5l47 64t50.5 76.5q33 54 47 90.5t14 84.5q0 54 -18.5 80t-58.5 26q-22 0 -37.5 -10t-23.5 -23t-12 -36.5t-4.5 -39t-0.5 -41.5h-105q0 48 7 86.5t26 75.5t58 57.5t96 20.5q84 0 130.5 -51.5t46.5 -144.5q0 -116 -84 -233
q-87 -119 -170 -216h254z" />
    <glyph glyph-name="three" unicode="3" horiz-adv-x="444" 
d="M407 215q0 -111 -42.5 -168t-148.5 -57q-46 0 -80 12.5t-53 31t-31 46t-15.5 50t-4.5 50.5v33h105v-33q0 -37 18.5 -68t60.5 -31q30 0 48.5 10.5t26 32.5t9.5 40.5t2 50.5q0 62 -20 89.5t-76 27.5h-45v93h31q65 0 84 29.5t19 100.5q0 39 -18 65t-53 26q-22 0 -37.5 -7.5
t-23 -17.5t-11.5 -28t-4.5 -29t-0.5 -31h-104q0 204 181 204q85 0 129 -48t44 -134q0 -64 -12.5 -100t-33.5 -50.5t-61 -23.5q51 -7 84 -48.5t33 -117.5z" />
    <glyph glyph-name="four" unicode="4" horiz-adv-x="444" 
d="M350 0h-104v170h-229v93l192 465h141v-465h86v-93h-86v-170zM246 263v347l-132 -347h132z" />
    <glyph glyph-name="five" unicode="5" horiz-adv-x="444" 
d="M407 213q0 -223 -184 -223q-88 0 -133.5 52.5t-45.5 141.5l1 29h104v-29q5 -103 73 -103q28 0 45.5 11t25 32.5t9.5 40.5t2 48v87q0 107 -76 107q-37 0 -58 -25.5t-21 -53.5h-99v400h340v-92h-235v-181q45 42 101 42q31 0 55.5 -7.5t40.5 -18.5t27 -30t16.5 -33.5t8 -38
t3 -36t0.5 -33.5v-87z" />
    <glyph glyph-name="six" unicode="6" horiz-adv-x="444" 
d="M408 186q0 -13 -1 -24.5t-5.5 -37.5t-16 -46.5t-30 -42t-51 -33.5t-74.5 -12q-52 0 -89 18t-54.5 40.5t-27.5 55.5t-11 48.5t-1 33.5v347q0 14 1 26t5.5 39t16 48.5t29.5 43.5t50 34.5t74 12.5q90 0 133 -48.5t43 -121.5v-35h-103v28q0 86 -69 86q-27 0 -44 -11
t-23.5 -32.5t-8 -35t-1.5 -34.5v-120q55 35 85 42q21 5 45 5q66 0 97 -48t31 -130v-96zM150 322v-136q0 -105 76 -105q23 0 38.5 7.5t23.5 17t12 26t4.5 26.5t0.5 28v96q0 84 -67 84q-41 0 -88 -44z" />
    <glyph glyph-name="seven" unicode="7" horiz-adv-x="444" 
d="M223 0h-109l180 636h-248v92h355v-92z" />
    <glyph glyph-name="eight" unicode="8" horiz-adv-x="444" 
d="M411 199q0 -209 -187 -209q-100 1 -143 53.5t-43 155.5q0 68 16.5 108t40.5 54t63 20q-110 22 -110 146q0 105 40 157.5t136 52.5q95 0 136 -51t41 -159q0 -66 -27.5 -100t-82.5 -46q29 -4 48.5 -12.5t37 -27.5t26 -54t8.5 -88zM143 233v-48q2 -48 18.5 -75t62.5 -27
q47 0 63.5 26.5t18.5 75.5v48q0 101 -82 101q-81 0 -81 -101zM224 648q-45 0 -59 -31t-14 -90q0 -99 73 -99q74 0 74 99q0 57 -14.5 89t-59.5 32z" />
    <glyph glyph-name="nine" unicode="9" horiz-adv-x="444" 
d="M400 195q0 -205 -187 -205q-91 0 -133 48t-42 117v56h103v-42q0 -89 80 -89q43 0 59 28.5t16 86.5v136l-8 -5q-8 -6 -13 -9l-15.5 -9t-19.5 -10t-21 -8t-25.5 -6t-26.5 -2q-39 0 -66 15.5t-40 44.5t-18 59t-5 68v71q0 38 8.5 70.5t27.5 62t56.5 47t89.5 17.5
q47 0 81 -14.5t53 -36.5t29.5 -59t13.5 -72t3 -86v-274zM142 540v-71q0 -16 0.5 -25t3.5 -23.5t9 -22.5t18.5 -14.5t29.5 -6.5q33 0 93 41v113q0 61 -15.5 88.5t-60.5 27.5q-78 0 -78 -107z" />
    <glyph glyph-name="colon" unicode=":" horiz-adv-x="222" 
d="M168 423h-116v118h116v-118zM168 0h-116v117h116v-117z" />
    <glyph glyph-name="semicolon" unicode=";" horiz-adv-x="222" 
d="M168 423h-116v118h116v-118zM107 -133h-54l41 133h-45v120h118v-119z" />
    <glyph glyph-name="less" unicode="&#x3c;" horiz-adv-x="741" 
d="M623 539v-78l-415 -167l415 -164v-81l-509 209v71z" />
    <glyph glyph-name="equal" unicode="=" horiz-adv-x="741" 
d="M588 188h-440v74h440v-74zM588 334h-440v74h440v-74z" />
    <glyph glyph-name="greater" unicode="&#x3e;" horiz-adv-x="741" 
d="M123 456v78l509 -210v-71l-509 -209v81l415 164z" />
    <glyph glyph-name="question" unicode="?" horiz-adv-x="370" 
d="M226 210h-87v78q0 56 16.5 105t35.5 77t35.5 61t16.5 59q0 29 -17 44.5t-41 15.5q-62 0 -62 -85h-102q0 30 7 57.5t24.5 54.5t53 43.5t85.5 16.5q70 0 113 -38.5t43 -108.5q0 -37 -19 -75t-41.5 -66.5t-41.5 -72t-19 -88.5v-78zM237 0h-109v112h109v-112z" />
    <glyph glyph-name="at" unicode="@" horiz-adv-x="741" 
d="M517 -113q-45 -14 -103 -14q-54 0 -95.5 9.5t-79.5 35.5t-62 70t-38.5 115.5t-14.5 169.5q0 74 6 130t23 108.5t45.5 86t75 53.5t110.5 20q47 0 85 -10.5t62 -26t41 -39t25 -42.5t12.5 -45t5 -38t0.5 -29v-342h-98v53q-21 -21 -53.5 -38t-58.5 -17q-117 0 -117 160
q0 34 8.5 61t20.5 44.5t33.5 31t37.5 20.5t45 12t42.5 6.5t41.5 3.5q0 149 -133 149q-37 0 -64.5 -11t-44.5 -34.5t-28 -49t-16 -65t-6.5 -72t-1.5 -80.5q0 -59 3 -100t14.5 -84.5t32 -69.5t56 -43t85.5 -17q58 0 103 16v-88zM517 358q-70 -9 -94 -26q-34 -24 -34 -75
q0 -66 53 -66q8 0 15.5 2t16.5 6t14 7l15.5 9.5t13.5 8.5v134z" />
    <glyph glyph-name="A" unicode="A" horiz-adv-x="463" 
d="M115 0h-105l149 728h149l149 -728h-105l-32 166h-173zM300 265l-66 342l-67 -342h133z" />
    <glyph glyph-name="B" unicode="B" horiz-adv-x="481" 
d="M205 0h-147v728h147q45 0 74.5 -3t62.5 -14.5t52.5 -32t32 -58.5t12.5 -92q0 -76 -27 -110.5t-75 -43.5q56 -4 85 -42t29 -119q0 -123 -59.5 -168t-186.5 -45zM205 631h-41v-207h41q64 -1 95.5 19t31.5 85q0 64 -29.5 83t-97.5 20zM205 327h-41v-230h41q75 -1 106.5 21.5
t31.5 94.5q0 71 -33.5 92t-104.5 22z" />
    <glyph glyph-name="C" unicode="C" horiz-adv-x="444" 
d="M410 195q0 -205 -173 -205q-187 0 -187 205v353q0 48 14.5 84.5t35.5 55.5t48.5 31t47.5 15t39 3q82 0 128.5 -46t46.5 -143v-68h-107v68q0 47 -16 69.5t-52 22.5q-30 0 -48.5 -21.5t-23 -40t-4.5 -30.5v-353q0 -52 16.5 -80t61.5 -28q66 0 66 108v57h107v-57z" />
    <glyph glyph-name="D" unicode="D" horiz-adv-x="481" 
d="M214 0h-158v728h158q125 0 172.5 -53.5t47.5 -197.5v-224q0 -68 -7.5 -110t-30 -77t-67 -50.5t-115.5 -15.5zM214 631h-50v-534h50q24 0 41 3.5t29.5 7.5t20 16t12 20.5t6 29.5t2 35t0.5 44v224v38t-1.5 31t-4.5 27.5t-8 20.5t-13 17t-20 10.5t-27.5 7.5t-36.5 2z" />
    <glyph glyph-name="E" unicode="E" horiz-adv-x="407" 
d="M389 0h-335v728h329v-97h-222v-207h196v-97h-196v-230h228v-97z" />
    <glyph glyph-name="F" unicode="F" 
d="M160 0h-107v728h330v-97h-223v-207h198v-97h-198v-327z" />
    <glyph glyph-name="G" unicode="G" horiz-adv-x="463" 
d="M322 60q-33 -39 -55 -51q-31 -19 -73 -19q-146 0 -146 208v344q0 88 49 142t138 54q91 0 138 -52t47 -144v-36h-108v36q0 97 -75 97q-46 0 -64 -30t-18 -67v-344q0 -22 2.5 -38.5t9.5 -34.5t23 -27.5t41 -9.5q16 0 29 4t19 8t17.5 14t15.5 14v170h-91v97h199v-395h-98v60
z" />
    <glyph glyph-name="H" unicode="H" horiz-adv-x="481" 
d="M163 0h-109v728h109v-304h159v304h110v-728h-110v327h-159v-327z" />
    <glyph glyph-name="I" unicode="I" horiz-adv-x="222" 
d="M168 0h-109v728h109v-728z" />
    <glyph glyph-name="J" unicode="J" horiz-adv-x="259" 
d="M211 193q0 -100 -31.5 -151.5t-116.5 -51.5q-36 0 -53 6v100q13 -4 35 -4q36 0 52 32q6 9 6 80v524h108v-535z" />
    <glyph glyph-name="K" unicode="K" horiz-adv-x="481" 
d="M160 0h-108v728h108v-317l179 317h111l-161 -272l184 -456h-113l-134 349l-66 -113v-236z" />
    <glyph glyph-name="L" unicode="L" 
d="M382 0h-328v728h106v-631h222v-97z" />
    <glyph glyph-name="M" unicode="M" horiz-adv-x="667" 
d="M155 0h-101v728h163l119 -489l120 489h162v-728h-100v589l-134 -589h-95l-134 589v-589z" />
    <glyph glyph-name="N" unicode="N" horiz-adv-x="519" 
d="M156 0h-101v728h142l170 -519v519h102v-728h-140l-173 535v-535z" />
    <glyph glyph-name="O" unicode="O" horiz-adv-x="463" 
d="M420 202q0 -29 -1 -48t-11 -53.5t-28 -55.5t-56 -38t-91 -17t-91 17t-55.5 38t-27.5 55.5t-11 53t-1 48.5v327q0 208 186 208q187 0 187 -208v-327zM154 529v-327q0 -22 1.5 -34.5t8 -34t24 -32.5t45.5 -11q23 0 39 8.5t24 19.5t12 29t4.5 28.5t0.5 26.5v327
q0 16 -0.5 26t-4.5 28t-12 28.5t-24 19t-39 8.5q-79 0 -79 -110z" />
    <glyph glyph-name="P" unicode="P" horiz-adv-x="463" 
d="M161 0h-106v728h154q27 0 41.5 -0.5t42 -4t44 -10.5t38 -21t33 -33.5t20 -50.5t8.5 -71q0 -61 -8.5 -99.5t-32.5 -69.5t-69.5 -44.5t-116.5 -13.5h-48v-310zM209 630h-48v-220h48q34 0 51.5 3t35.5 14.5t25 38t7 71.5q0 57 -28 75t-91 18z" />
    <glyph glyph-name="Q" unicode="Q" horiz-adv-x="481" 
d="M428 0q-41 0 -106 -5t-81 -5q-51 1 -88 17t-55 36.5t-28.5 53t-12 54t-1.5 52.5v328q0 12 1 23.5t5.5 39t16.5 49t31 45t53 36.5t78 13t78.5 -12t53.5 -33.5t31.5 -42.5t17 -48.5t5.5 -40.5t1 -29v-328q0 -9 -2 -22.5t-7.5 -36t-19.5 -42t-34 -28.5l115 18v-94
q-36 2 -52 2zM163 531l-1 -328q0 -22 1.5 -37t8.5 -36.5t25 -33t46 -11.5q28 1 45.5 13.5t24 34.5t8 36t1.5 34v328q0 12 -1.5 24t-8 33.5t-24.5 35t-45 13.5t-45.5 -13.5t-24.5 -35t-8 -33.5t-2 -24z" />
    <glyph glyph-name="R" unicode="R" horiz-adv-x="481" 
d="M165 0h-108v728h152q32 0 49 -0.5t45.5 -4.5t44.5 -11t36 -22t30.5 -36t18 -54t7.5 -75q0 -60 -12 -98t-30.5 -56t-50.5 -33l126 -338h-115l-111 316q-19 -2 -82 -2v-314zM215 630h-50v-225h50q68 0 92 25.5t24 94.5q0 55 -25 80t-91 25z" />
    <glyph glyph-name="S" unicode="S" horiz-adv-x="426" 
d="M401 174q0 -84 -49 -134t-134 -50q-97 0 -142.5 54t-45.5 130v64h106v-64q8 -86 82 -86q35 0 55.5 22.5t20.5 63.5q0 39 -26.5 73.5t-64 63t-75 60t-64 80t-26.5 107.5q0 82 48.5 130.5t133.5 48.5q89 0 131 -52.5t42 -126.5v-58h-105v58q0 31 -17.5 57t-50.5 26
q-35 0 -55 -22t-20 -61q0 -38 26.5 -72.5t64 -64l75 -62t64 -80t26.5 -105.5z" />
    <glyph glyph-name="T" unicode="T" horiz-adv-x="407" 
d="M262 0h-111v631h-133v97h377v-97h-133v-631z" />
    <glyph glyph-name="U" unicode="U" horiz-adv-x="481" 
d="M433 241q0 -28 -0.5 -44.5t-4 -46t-10.5 -48.5t-21 -42.5t-33.5 -37t-50 -23t-69.5 -9.5t-69.5 9.5t-50 23t-33.5 37t-20.5 42t-10 48.5t-4 46.5t-0.5 44.5v487h108v-487q0 -36 0.5 -53t4.5 -40.5t12 -33.5t23.5 -17.5t39.5 -7.5t39.5 7.5t23.5 17.5t12 33.5t4.5 40.5
t0.5 53v487h109v-487z" />
    <glyph glyph-name="V" unicode="V" horiz-adv-x="444" 
d="M290 0h-133l-150 728h110l106 -552l107 552h109z" />
    <glyph glyph-name="W" unicode="W" horiz-adv-x="685" 
d="M254 0h-112l-121 728h106l73 -508l89 508h113l90 -508l72 508h107l-122 -728h-111l-92 505z" />
    <glyph glyph-name="X" unicode="X" horiz-adv-x="463" 
d="M121 0h-110l161 375l-153 353h116l99 -250l98 250h116l-153 -353l161 -375h-110l-112 275z" />
    <glyph glyph-name="Y" unicode="Y" horiz-adv-x="463" 
d="M292 0h-112v305l-167 423h114l109 -285l109 285h113l-166 -423v-305z" />
    <glyph glyph-name="Z" unicode="Z" horiz-adv-x="407" 
d="M386 0h-363v97l244 534h-240v97h354v-97l-242 -534h247v-97z" />
    <glyph glyph-name="bracketleft" unicode="[" horiz-adv-x="222" 
d="M215 -115h-183v843h183v-64h-90v-716h90v-63z" />
    <glyph glyph-name="backslash" unicode="\" horiz-adv-x="222" 
d="M199 -100h-72l-110 828h73z" />
    <glyph glyph-name="bracketright" unicode="]" horiz-adv-x="222" 
d="M192 -115h-182v64h90v716h-90v63h182v-843z" />
    <glyph glyph-name="asciicircum" unicode="^" horiz-adv-x="250" 
d="M57 509h-59l107 219h59l99 -219h-59l-71 167z" />
    <glyph glyph-name="underscore" unicode="_" horiz-adv-x="570" 
d="M0 -136v46h570v-46h-570z" />
    <glyph glyph-name="grave" unicode="`" horiz-adv-x="188" 
d="M187 593h-82l-90 145h111z" />
    <glyph glyph-name="a" unicode="a" 
d="M253 52q-31 -30 -55.5 -44.5t-58.5 -14.5q-59 0 -86 43.5t-27 102.5q0 48 12.5 83t31 55t51 33.5t60.5 18.5t72 9v20q0 56 -13.5 80.5t-44.5 24.5q-36 0 -47.5 -25t-11.5 -66h-101q0 176 160 176q37 0 65.5 -9t45 -27t27 -35t14.5 -42.5t5 -40t1 -36.5v-358h-100v52z
M253 258q-66 -11 -90 -26q-36 -25 -36 -76q0 -68 56 -68q9 0 19.5 4t16.5 8l18 12.5l16 11.5v134z" />
    <glyph glyph-name="b" unicode="b" 
d="M138 0h-100v731h100v-236q64 42 93 50q14 3 26 3q25 0 44 -6.5t30 -21t18 -28t9.5 -38t3 -39t0.5 -42.5v-189q0 -29 -0.5 -44.5t-3 -42.5t-9.5 -41.5t-18 -31t-30 -24t-44 -7.5q-57 0 -119 55v-48zM138 418v-294q43 -43 66 -43q22 0 34.5 7t18 24t6.5 30.5t1 41.5v189
q0 88 -54 88q-27 0 -72 -43z" />
    <glyph glyph-name="c" unicode="c" horiz-adv-x="370" 
d="M347 164q0 -171 -156 -171q-162 0 -162 171v213q0 14 1 24.5t5 33.5t14.5 40t27 35t46 28t68.5 10q156 0 156 -171v-25h-95v25q0 85 -61 85q-64 0 -64 -85v-213q0 -17 1 -27t6.5 -25.5t19.5 -23.5t37 -8q61 0 61 84v36h95v-36z" />
    <glyph glyph-name="d" unicode="d" 
d="M258 48q-1 -1 -10.5 -8t-16.5 -11.5t-20 -12t-24 -12t-25.5 -8t-27.5 -3.5q-29 0 -49.5 12t-31 27.5t-15.5 43t-6 45t-1 47.5v204q0 20 1 35.5t4 38t10 39t17.5 32t28.5 23.5t42 8q15 0 30 -3.5t30 -11t23.5 -12.5t23.5 -15.5t17 -12.5v238h98v-731h-98v48zM130 372v-204
q0 -17 0.5 -26t3 -22.5t8 -20.5t16 -12.5t25.5 -5.5q24 0 75 42v298q-54 40 -74 40q-54 0 -54 -89z" />
    <glyph glyph-name="e" unicode="e" 
d="M358 184q0 -29 -2 -50.5t-11.5 -50t-26.5 -46.5t-48.5 -31t-75.5 -13q-162 0 -162 191v191q0 14 1 27.5t10 42.5t24.5 49.5t48.5 37t79 16.5q163 0 163 -173v-130h-228v-61q0 -19 0.5 -29t3.5 -26.5t9.5 -25.5t19.5 -16t31 -7q23 0 38 10t20 29t6.5 31.5t1.5 33.5h98z
M198 463q-68 0 -68 -88v-40h130v40q0 88 -62 88z" />
    <glyph glyph-name="f" unicode="f" horiz-adv-x="278" 
d="M187 0h-100v452h-78v89h78v35q0 30 1 45.5t8 40.5t20.5 37t40.5 22t67 10q17 0 53 -2v-88q-18 2 -28 2q-40 0 -51 -15t-11 -52v-35h85v-89h-85v-452z" />
    <glyph glyph-name="g" unicode="g" 
d="M380 -35q0 -65 -54.5 -99.5t-134.5 -34.5q-76 0 -125 26t-49 71q0 18 7.5 32.5t23.5 24.5t23 13.5t25 9.5q3 1 5 2q-13 4 -19 6.5t-18 10t-17.5 19t-5.5 27.5q0 10 2.5 19t6 15.5t10 13t11 10t13.5 8t12.5 5.5t13 5t10.5 4q-24 10 -37.5 19t-27.5 28t-20 52t-6 84
q0 49 6 84t22 66t48 46.5t80 15.5q21 0 61 -7.5t61 -7.5q23 0 74 15v-96q-47 4 -72 14q11 -13 17.5 -23.5t12 -38t5.5 -68.5q0 -99 -33.5 -147.5t-116.5 -48.5q-4 0 -12 0.5t-12 0.5q-25 -16 -25 -30t22.5 -18t63.5 -7t66 -10q83 -24 83 -111zM149 3q-31 -27 -31 -44
q0 -50 84 -50q38 0 62 13.5t24 38.5q0 9 -3 15t-11.5 10.5t-15.5 7t-22 4t-25 2l-30.5 1.5t-31.5 2zM185 461q-21 0 -33.5 -10.5t-17.5 -32.5t-6 -38t-1 -44q0 -24 0.5 -35.5t3.5 -28.5t8.5 -24.5t17 -13.5t28.5 -6q22 0 35 8t18.5 26t6.5 32t1 42q0 29 -0.5 43t-3.5 33
t-9 27.5t-18 15t-30 6.5z" />
    <glyph glyph-name="h" unicode="h" 
d="M137 0h-102v731h102v-242q18 16 59 37.5t69 21.5t46.5 -9t28 -20.5t14.5 -40.5t5.5 -49.5t0.5 -66.5v-362h-100v362v31.5t-2.5 24t-6.5 21.5t-13 11t-22 5q-6 0 -11.5 -1t-10 -2t-10 -4t-9 -4.5t-8.5 -5.5l-7 -5.5t-7 -6.5l-6 -6t-5 -6l-5 -5v-409z" />
    <glyph glyph-name="i" unicode="i" horiz-adv-x="167" 
d="M134 622h-99v106h99v-106zM134 0h-99v541h99v-541z" />
    <glyph glyph-name="j" unicode="j" horiz-adv-x="185" 
d="M152 6q0 -31 -1 -48t-7 -45t-18 -43t-36.5 -27t-59.5 -12q-18 0 -54 4v86q16 -2 25 -2q24 0 35.5 12t13.5 27t2 48v535h100v-535zM152 622h-100v106h100v-106z" />
    <glyph glyph-name="k" unicode="k" 
d="M136 0h-101v731h101v-419l126 229h110l-115 -189l123 -352h-103l-83 262l-58 -91v-171z" />
    <glyph glyph-name="l" unicode="l" horiz-adv-x="167" 
d="M136 0h-99v731h99v-731z" />
    <glyph glyph-name="m" unicode="m" horiz-adv-x="611" 
d="M125 0h-97v541h92v-57q1 1 7.5 7t10 9.5t12 10.5t15.5 11t17.5 9.5t20.5 9t23 5.5t27 2q61 0 84 -64q17 18 27.5 27.5t42 23t68.5 13.5q24 0 41 -5.5t28 -20t17 -28t8.5 -43t3 -49.5t0.5 -62v-340h-96v340q0 34 -1 50.5t-6 35.5t-16 26.5t-30 7.5q-40 0 -74 -42v-418h-97
v381q0 75 -54 75q-36 0 -74 -38v-418z" />
    <glyph glyph-name="n" unicode="n" 
d="M134 0h-100v541h96v-53q1 0 14.5 11.5t18 14.5l18.5 12t24.5 12t26 6.5t31.5 3.5q23 0 39.5 -5t26.5 -19t16 -26.5t8.5 -39.5t3 -44t0.5 -54v-360h-99v360q0 39 -1.5 55.5t-12 29t-32.5 12.5q-36 0 -78 -42v-415z" />
    <glyph glyph-name="o" unicode="o" 
d="M356 191q0 -20 -0.5 -31.5t-3.5 -35t-8.5 -38.5t-18 -34.5t-29 -31t-43 -19.5t-60.5 -8q-46 0 -79 15.5t-49 34.5t-24.5 51.5t-9.5 50.5t-1 46v163q0 195 163 195t163 -195v-163zM127 354v-163q0 -23 1.5 -36.5t6.5 -34t20 -31t38 -10.5t37.5 9.5t20 29.5t6.5 33.5
t1 39.5v163q0 24 -1 36.5t-6.5 32.5t-20 29.5t-37.5 9.5q-19 0 -32 -7.5t-19.5 -17.5t-10 -27t-4 -27.5t-0.5 -28.5z" />
    <glyph glyph-name="p" unicode="p" 
d="M136 -169h-100v710h100v-48q2 2 10 8l10.5 8t10 7.5t10.5 7.5t10.5 6.5t12.5 6t12.5 4.5t14 4t14.5 2t17 1q29 0 49 -12t30 -27.5t15.5 -46t6 -50t0.5 -57.5l1 -179q0 -27 -0.5 -43.5t-3.5 -41t-10 -39.5t-18 -30t-29 -22t-43 -7q-12 0 -24 2t-23 6.5l-20 8.5t-18.5 10
t-14.5 9.5t-12 9t-8 6.5v-214zM136 418v-296q39 -42 70 -42q16 0 27 6t16.5 13.5t8 23t3 25t0.5 28.5v173q0 39 -2 57.5t-14.5 34t-38.5 15.5q-32 0 -70 -38z" />
    <glyph glyph-name="q" unicode="q" 
d="M354 -169h-97v215q-29 -19 -41.5 -26.5t-37.5 -17t-45 -9.5q-29 0 -49.5 12t-30.5 27.5t-15.5 44.5t-6 47t-0.5 52v206q0 32 2.5 54.5t12 51.5t32 44.5t57.5 15.5q26 0 52.5 -11.5t36.5 -19t33 -26.5v50h97v-710zM129 382v-206q0 -24 0.5 -35t3 -25.5t8.5 -20t17 -10
t28 -4.5q8 0 15.5 2.5t15.5 7.5t13 9t14 12t13 11v299q-3 2 -13 10t-15 11.5l-13 9t-15.5 7.5t-15.5 2q-56 0 -56 -80z" />
    <glyph glyph-name="r" unicode="r" horiz-adv-x="278" 
d="M139 0h-96v541h96v-76q52 81 130 83v-107q-18 4 -26 4q-29 0 -52.5 -13t-31 -22.5t-20.5 -29.5v-380z" />
    <glyph glyph-name="s" unicode="s" horiz-adv-x="370" 
d="M352 141q0 -69 -47.5 -108.5t-125.5 -39.5q-77 0 -117.5 43t-40.5 123v27h100v-27q0 -15 3.5 -30.5t17.5 -32t38 -16.5q69 0 69 61q0 34 -22.5 57t-54.5 38t-64.5 32.5t-55 53t-22.5 87.5q0 59 43 99t114 40q72 0 114.5 -43t42.5 -112v-21h-97v21q0 22 -14.5 46.5
t-45.5 24.5q-25 0 -42.5 -15.5t-17.5 -39.5q0 -28 23 -49t56 -37t66.5 -36t56.5 -57t23 -89z" />
    <glyph glyph-name="t" unicode="t" horiz-adv-x="278" 
d="M271 -5q-21 -2 -63 -2q-37 0 -62 10t-37.5 22.5t-19 40t-7.5 46t-1 56.5v284h-71v89h71v128h99v-128h83v-89h-83v-284q0 -27 1 -38t6.5 -24.5t19 -18t36.5 -4.5q1 0 28 3v-91z" />
    <glyph glyph-name="u" unicode="u" 
d="M256 53q-75 -60 -132 -60q-22 0 -38.5 7.5t-26 24.5t-15.5 32.5t-8.5 42.5t-3 42.5t-0.5 44.5v354h100v-354q0 -21 0.5 -32t3 -27.5t7 -24.5t14.5 -14.5t24 -6.5q19 0 41.5 15t33.5 29v415h99v-541h-99v53z" />
    <glyph glyph-name="v" unicode="v" 
d="M249 0h-106l-137 541h100l90 -377l90 377h99z" />
    <glyph glyph-name="w" unicode="w" horiz-adv-x="574" 
d="M216 0h-104l-103 541h94l66 -385l69 385h101l70 -385l66 385h93l-103 -541h-104l-72 373z" />
    <glyph glyph-name="x" unicode="x" 
d="M108 0h-100l127 280l-119 261h107l71 -186l72 186h107l-120 -261l128 -280h-100l-87 208z" />
    <glyph glyph-name="y" unicode="y" 
d="M274 112q-39 -156 -55 -193q-30 -68 -83 -82q-21 -6 -47 -6q-29 0 -57 3v85q18 -2 30 -2q28 0 53.5 14.5t25.5 50.5q0 24 -26 130l-108 429h100l92 -386l85 386h97z" />
    <glyph glyph-name="z" unicode="z" horiz-adv-x="333" 
d="M322 0h-312v90l199 362h-191v89h302v-89l-197 -362h199v-90z" />
    <glyph glyph-name="braceleft" unicode="{" horiz-adv-x="436" 
d="M137 246q46 -7 89.5 -43.5t56.5 -64.5q11 -23 15 -45t3 -36t-5 -39.5t-5 -38.5q-1 -6 -2.5 -23t-2 -23.5t-0.5 -18.5t2.5 -22.5t6.5 -21.5q26 -67 97 -91v-24q-29 -2 -92 23t-87 67q-19 33 -22 60t2 76q0 4 10.5 63t5.5 87q-5 26 -39.5 58t-62.5 42v31q28 7 65.5 39
t42.5 58q5 12 3 38.5t-4 40t-7 38.5l-7 35q-8 50 -4 76t23 60q24 42 86.5 67t91.5 23v-23q-71 -24 -97 -92q-4 -11 -6.5 -21.5t-2.5 -22.5t0.5 -18.5t2 -23.5t2.5 -23q1 -13 5.5 -40t5.5 -40t-3 -35.5t-15 -45.5q-10 -21 -72 -62.5t-80 -43.5z" />
    <glyph glyph-name="bar" unicode="|" horiz-adv-x="250" 
d="M107 -141v869h53v-869h-53z" />
    <glyph glyph-name="braceright" unicode="}" horiz-adv-x="463" 
d="M337 247q-47 7 -90 43t-56 64q-11 23 -15 45t-3 36t4.5 39t4.5 39q1 8 3 28t2 28.5t-2 23.5t-7 29q-26 67 -97 91v24q29 2 92 -23t87 -67q19 -34 22.5 -60t-2.5 -76q-1 -10 -8 -46t-8 -53t1 -51q5 -26 39.5 -57.5t62.5 -41.5v-31q-28 -7 -66 -39.5t-42 -58.5
q-5 -11 -2.5 -38t4 -39.5t7 -38.5t6.5 -35q8 -51 4 -76t-23 -60q-23 -42 -86 -67t-92 -23v23q71 24 97 92q4 11 6.5 21.5t2.5 22.5t-0.5 18.5t-2 23.5t-2.5 23q-1 12 -5.5 39.5t-5 40t3 35t14.5 45.5q10 21 72 63t80 44z" />
    <glyph glyph-name="asciitilde" unicode="~" horiz-adv-x="741" 
d="M215 242h-51q12 133 98 133q43 1 118.5 -51.5t101.5 -52.5q14 0 23.5 5.5t14 16.5t7 19.5t4 22.5t2.5 17h48q-6 -62 -26.5 -97.5t-70.5 -35.5q-31 0 -64.5 16t-57 35t-51.5 35t-51 16q-12 0 -20 -6t-13 -21.5t-6.5 -22.5t-5.5 -29z" />
    <glyph glyph-name="nbspace" unicode="&#xa0;" horiz-adv-x="444" 
 />
    <glyph glyph-name="exclamdown" unicode="&#xa1;" horiz-adv-x="278" 
d="M206 -153h-133l29 497h75zM193 429h-107v112h107v-112z" />
    <glyph glyph-name="cent" unicode="&#xa2;" horiz-adv-x="444" 
d="M270 -45h-89v130q-66 20 -91 65.5t-25 131.5v162q0 167 116 192v121h89v-121q119 -34 119 -160v-32h-97v32q0 38 -18.5 57.5t-45.5 19.5q-19 0 -32 -7.5t-19.5 -16.5t-9.5 -27t-3.5 -28t-0.5 -30v-162q0 -20 0.5 -28.5t2 -25t5.5 -24.5t11 -17.5t19 -13.5t28 -4
q22 0 36 9t19 26t6.5 29.5t1.5 32.5v27h97v-27q0 -158 -119 -181v-130z" />
    <glyph glyph-name="sterling" unicode="&#xa3;" horiz-adv-x="444" 
d="M409 0h-383v86h59v258h-75v85h75v133q0 175 161 175q48 0 82 -14.5t50.5 -39.5t23.5 -50.5t7 -53.5v-32h-101v32q0 29 -14.5 50.5t-46.5 21.5q-60 0 -60 -89v-133h110v-85h-110v-258h222v-86z" />
    <glyph glyph-name="currency" unicode="&#xa4;" horiz-adv-x="500" 
d="M78 479l-68 70l30 31l68 -70q62 46 135 49q85 3 152 -45l72 67l31 -31l-69 -71q52 -64 52 -145q0 -80 -52 -143l69 -69l-29 -28l-70 71q-64 -53 -143 -54q-83 -1 -150 51l-68 -69l-32 30l70 70q-52 64 -51 146q1 79 53 140zM433 333q1 75 -51.5 128.5t-129.5 52.5
q-73 0 -125 -52t-52 -125q-1 -77 52 -128.5t128 -51.5q73 0 125 51.5t53 124.5z" />
    <glyph glyph-name="yen" unicode="&#xa5;" horiz-adv-x="444" 
d="M294 0h-115v87h-85v50h85v50h-85v50h85v68l-166 423h114l110 -285l109 285h114l-166 -423v-68h85v-50h-85v-50h85v-50h-85v-87z" />
    <glyph glyph-name="section" unicode="&#xa7;" horiz-adv-x="444" 
d="M367 122q0 -65 -47 -98.5t-138 -33.5q-46 0 -104 13v78q72 -19 104 -19q47 0 70.5 18t23.5 42q0 20 -6.5 35t-23 27.5t-28 18.5t-36.5 18q-29 13 -45 23t-34 26.5t-26 40.5t-8 56q0 69 25 96.5t77 35.5q-24 9 -39.5 18t-30.5 33t-15 59q0 63 43.5 95.5t113.5 32.5
q36 0 104 -12v-74q-63 14 -94 14q-35 0 -57 -15t-22 -41q0 -49 90 -87q25 -11 41 -20t34.5 -25.5t27.5 -41.5t9 -58q0 -69 -27.5 -97t-76.5 -36q95 -28 95 -122zM223 458q-62 0 -62 -86q0 -41 16 -64t45 -23q63 0 63 87q0 86 -62 86z" />
    <glyph glyph-name="dieresis" unicode="&#xa8;" horiz-adv-x="244" 
d="M74 593h-98v99h98v-99zM243 593h-98v99h98v-99z" />
    <glyph glyph-name="copyright" unicode="&#xa9;" horiz-adv-x="500" 
d="M13 500q0 96 68 166t164 71q96 2 167 -64t75 -162q4 -100 -67.5 -174t-171.5 -73q-97 1 -166 70t-69 166zM454 510q-3 82 -64.5 138.5t-144.5 54.5q-82 -2 -139.5 -62.5t-56.5 -142.5q1 -83 60 -142t141 -59q86 0 147 64t57 149zM126 504q0 53 35 92t87 43q62 4 106 -38
l-23 -23q-32 30 -83 29q-39 -2 -65 -33.5t-26 -73.5q0 -40 28 -68.5t68 -30.5q51 -2 81 32l23 -22q-43 -44 -107 -40q-52 4 -88 42t-36 91z" />
    <glyph glyph-name="ordfeminine" unicode="&#xaa;" horiz-adv-x="444" 
d="M264 425q-41 -44 -93 -44q-40 0 -62.5 26.5t-22.5 74.5q0 17 4 31t8.5 24.5t15 20t18 15t22 11t22 8t24.5 5t22.5 3.5t22.5 2.5t19 1.5q0 74 -47 74q-53 0 -53 -55h-74q0 114 127 114q53 0 86.5 -26.5t33.5 -85.5v-238h-73v38zM264 552q-17 -2 -23.5 -3t-25.5 -6
t-28.5 -11.5t-18 -18.5t-8.5 -28q0 -21 11.5 -32.5t30.5 -11.5q28 0 62 31v80z" />
    <glyph glyph-name="guillemotleft" unicode="&#xab;" horiz-adv-x="352" 
d="M174 97h-77l-68 202l71 198h73l-59 -198zM326 97h-74l-69 202l71 198h72l-60 -198z" />
    <glyph glyph-name="logicalnot" unicode="&#xac;" horiz-adv-x="741" 
d="M22 354v54h694v-286h-49v232h-645z" />
    <glyph glyph-name="registered" unicode="&#xae;" horiz-adv-x="500" 
d="M19 505q2 96 70.5 164t164.5 68q95 0 163.5 -66.5t71.5 -160.5q3 -98 -67.5 -172t-168.5 -74q-96 0 -166 72t-68 169zM455 509q-3 80 -60.5 136t-137.5 57q-83 1 -142.5 -58t-60.5 -141q-1 -83 57.5 -144t140.5 -62q85 -1 146 63t57 149zM169 632h93q11 0 22 -2t27 -8
t26.5 -22.5t10.5 -41.5q1 -50 -46 -69l46 -105h-42l-40 102h-60v-102h-37v248zM205 597v-78h54q53 0 53 41q0 19 -14.5 28t-34.5 9h-58z" />
    <glyph glyph-name="macron" unicode="&#xaf;" horiz-adv-x="256" 
d="M255 593h-281v78h281v-78z" />
    <glyph glyph-name="degree" unicode="&#xb0;" horiz-adv-x="444" 
d="M356 597q0 -75 -36.5 -112.5t-99.5 -37.5q-62 0 -99.5 38t-37.5 112q0 62 38 101t99 39t98.5 -38.5t37.5 -101.5zM220 684q-38 0 -56.5 -25t-18.5 -62q0 -44 18.5 -70.5t56.5 -26.5q74 0 74 97q0 37 -18 62t-56 25z" />
    <glyph glyph-name="plusminus" unicode="&#xb1;" horiz-adv-x="741" 
d="M590 -28h-443v72h443v-72zM406 84h-75v178h-184v72h184v188h75v-188h184v-72h-184v-178z" />
    <glyph glyph-name="acute" unicode="&#xb4;" horiz-adv-x="217" 
d="M123 593h-78l60 145h111z" />
    <glyph glyph-name="mu" unicode="&#xb5;" horiz-adv-x="610" 
d="M73 28v489h89v-292q0 -109 22 -135q29 -34 89 -30q32 2 64.5 26t42.5 49v382h88v-360q0 -58 14 -91q8 -19 25.5 -24.5t32.5 -1.5q18 5 31.5 31t9.5 38h19q-3 -50 -42 -86q-36 -33 -83 -33q-40 -1 -67 33.5t-27 64.5q-7 -19 -58.5 -57t-106.5 -40q-31 -1 -65 19t-51 41
v-48q0 -32 21 -79t21 -70q0 -73 -48 -73q-27 0 -39.5 21.5t-9.5 49.5q3 33 15.5 74.5t12.5 101.5z" />
    <glyph glyph-name="paragraph" unicode="&#xb6;" horiz-adv-x="444" 
d="M357 728h78v-30h-72v-879h-29v879h-57l1 -879h-35v444q-92 1 -157.5 66t-65.5 158q0 55 29 110.5t82 85.5q81 45 226 45z" />
    <glyph glyph-name="periodcentered" unicode="&#xb7;" horiz-adv-x="444" 
d="M281 296h-117v125h117v-125z" />
    <glyph glyph-name="cedilla" unicode="&#xb8;" horiz-adv-x="178" 
d="M123 -169h-111l82 133h83z" />
    <glyph glyph-name="ordmasculine" unicode="&#xba;" horiz-adv-x="444" 
d="M347 516q0 -134 -125 -134t-125 134v90q0 11 1 21t7.5 32t18.5 37.5t37.5 28t60.5 12.5t60.5 -12.5t37.5 -27.5t18.5 -37t7.5 -32t1 -22v-90zM172 606v-90q0 -70 50 -70t50 70v90q0 16 -1 24.5t-5 21t-15 18.5t-29 6t-29 -6t-15 -18.5t-5 -21t-1 -24.5z" />
    <glyph glyph-name="guillemotright" unicode="&#xbb;" horiz-adv-x="352" 
d="M102 97h-72l60 198l-61 202h75l69 -202zM256 97h-73l58 198l-59 202h77l67 -202z" />
    <glyph glyph-name="questiondown" unicode="&#xbf;" horiz-adv-x="370" 
d="M347 5q0 -30 -7 -57.5t-24.5 -54.5t-53 -43.5t-85.5 -16.5q-70 0 -113 38.5t-43 108.5q0 35 19 73.5t41.5 67.5t41.5 68t19 75v79h87v-79q0 -48 -16.5 -93.5t-35.5 -73.5t-35.5 -60t-16.5 -57q0 -29 17 -44.5t41 -15.5q62 0 62 85h102zM240 429h-109v112h109v-112z" />
    <glyph glyph-name="Agrave" unicode="&#xc0;" horiz-adv-x="463" 
d="M115 0h-105l149 728h149l149 -728h-105l-32 166h-173zM300 265l-66 342l-67 -342h133zM285 772h-82l-90 145h111z" />
    <glyph glyph-name="Aacute" unicode="&#xc1;" horiz-adv-x="463" 
d="M115 0h-105l149 728h149l149 -728h-105l-32 166h-173zM300 265l-66 342l-67 -342h133zM269 772h-78l60 145h111z" />
    <glyph glyph-name="Acircumflex" unicode="&#xc2;" horiz-adv-x="463" 
d="M115 0h-105l149 728h149l149 -728h-105l-32 166h-173zM300 265l-66 342l-67 -342h133zM169 772h-88l84 145h118l84 -145h-87l-56 101z" />
    <glyph glyph-name="Atilde" unicode="&#xc3;" horiz-adv-x="463" 
d="M115 0h-105l149 728h149l149 -728h-105l-32 166h-173zM300 265l-66 342l-67 -342h133zM182 772h-62q0 113 53 113q21 0 61.5 -19.5t49.5 -19.5q23 0 23 38h61q0 -112 -56 -112q-15 0 -57 18t-47 18q-23 0 -26 -36z" />
    <glyph glyph-name="Adieresis" unicode="&#xc4;" horiz-adv-x="463" 
d="M115 0h-105l149 728h149l149 -728h-105l-32 166h-173zM300 265l-66 342l-67 -342h133zM192 772h-98v99h98v-99zM361 772h-98v99h98v-99z" />
    <glyph glyph-name="Aring" unicode="&#xc5;" horiz-adv-x="463" 
d="M115 0h-105l149 728h149l149 -728h-105l-32 166h-173zM300 265l-66 342l-67 -342h133zM334 856q0 -38 -28.5 -61t-72.5 -23t-73 23t-29 61q0 40 29 62.5t73 22.5t72.5 -22.5t28.5 -62.5zM233 898q-17 0 -30 -12t-13 -28q0 -17 13 -30.5t30 -13.5t30 13.5t13 30.5
q0 16 -13 28t-30 12z" />
    <glyph glyph-name="AE" unicode="&#xc6;" horiz-adv-x="630" 
d="M118 0h-107l208 728h370v-97h-210l23 -207h173v-97h-164l22 -230h177v-97h-274l-14 165h-161zM313 264l-32 354l-94 -354h126z" />
    <glyph glyph-name="Ccedilla" unicode="&#xc7;" horiz-adv-x="444" 
d="M410 195q0 -205 -173 -205q-187 0 -187 205v353q0 48 14.5 84.5t35.5 55.5t48.5 31t47.5 15t39 3q82 0 128.5 -46t46.5 -143v-68h-107v68q0 47 -16 69.5t-52 22.5q-30 0 -48.5 -21.5t-23 -40t-4.5 -30.5v-353q0 -52 16.5 -80t61.5 -28q66 0 66 108v57h107v-57zM223 -169
h-111l82 133h83z" />
    <glyph glyph-name="Egrave" unicode="&#xc8;" horiz-adv-x="407" 
d="M389 0h-335v728h329v-97h-222v-207h196v-97h-196v-230h228v-97zM279 772h-82l-90 145h111z" />
    <glyph glyph-name="Eacute" unicode="&#xc9;" horiz-adv-x="407" 
d="M389 0h-335v728h329v-97h-222v-207h196v-97h-196v-230h228v-97zM256 772h-78l60 145h111z" />
    <glyph glyph-name="Ecircumflex" unicode="&#xca;" horiz-adv-x="407" 
d="M389 0h-335v728h329v-97h-222v-207h196v-97h-196v-230h228v-97zM178 772h-88l84 145h118l84 -145h-87l-56 101z" />
    <glyph glyph-name="Edieresis" unicode="&#xcb;" horiz-adv-x="407" 
d="M389 0h-335v728h329v-97h-222v-207h196v-97h-196v-230h228v-97zM200 772h-98v99h98v-99zM369 772h-98v99h98v-99z" />
    <glyph glyph-name="Igrave" unicode="&#xcc;" horiz-adv-x="222" 
d="M168 0h-109v728h109v-728zM173 772h-82l-90 145h111z" />
    <glyph glyph-name="Iacute" unicode="&#xcd;" horiz-adv-x="222" 
d="M168 0h-109v728h109v-728zM135 772h-78l60 145h111z" />
    <glyph glyph-name="Icircumflex" unicode="&#xce;" horiz-adv-x="222" 
d="M168 0h-109v728h109v-728zM63 772h-88l84 145h118l84 -145h-87l-56 101z" />
    <glyph glyph-name="Idieresis" unicode="&#xcf;" horiz-adv-x="222" 
d="M168 0h-109v728h109v-728zM78 772h-98v99h98v-99zM247 772h-98v99h98v-99z" />
    <glyph glyph-name="Ntilde" unicode="&#xd1;" horiz-adv-x="519" 
d="M156 0h-101v728h142l170 -519v519h102v-728h-140l-173 535v-535zM213 772h-62q0 113 53 113q21 0 61.5 -19.5t49.5 -19.5q23 0 23 38h61q0 -112 -56 -112q-15 0 -57 18t-47 18q-23 0 -26 -36z" />
    <glyph glyph-name="Ograve" unicode="&#xd2;" horiz-adv-x="463" 
d="M420 202q0 -29 -1 -48t-11 -53.5t-28 -55.5t-56 -38t-91 -17t-91 17t-55.5 38t-27.5 55.5t-11 53t-1 48.5v327q0 208 186 208q187 0 187 -208v-327zM154 529v-327q0 -22 1.5 -34.5t8 -34t24 -32.5t45.5 -11q23 0 39 8.5t24 19.5t12 29t4.5 28.5t0.5 26.5v327
q0 16 -0.5 26t-4.5 28t-12 28.5t-24 19t-39 8.5q-79 0 -79 -110zM297 772h-82l-90 145h111z" />
    <glyph glyph-name="Oacute" unicode="&#xd3;" horiz-adv-x="463" 
d="M420 202q0 -29 -1 -48t-11 -53.5t-28 -55.5t-56 -38t-91 -17t-91 17t-55.5 38t-27.5 55.5t-11 53t-1 48.5v327q0 208 186 208q187 0 187 -208v-327zM154 529v-327q0 -22 1.5 -34.5t8 -34t24 -32.5t45.5 -11q23 0 39 8.5t24 19.5t12 29t4.5 28.5t0.5 26.5v327
q0 16 -0.5 26t-4.5 28t-12 28.5t-24 19t-39 8.5q-79 0 -79 -110zM271 772h-78l60 145h111z" />
    <glyph glyph-name="Ocircumflex" unicode="&#xd4;" horiz-adv-x="463" 
d="M420 202q0 -29 -1 -48t-11 -53.5t-28 -55.5t-56 -38t-91 -17t-91 17t-55.5 38t-27.5 55.5t-11 53t-1 48.5v327q0 208 186 208q187 0 187 -208v-327zM154 529v-327q0 -22 1.5 -34.5t8 -34t24 -32.5t45.5 -11q23 0 39 8.5t24 19.5t12 29t4.5 28.5t0.5 26.5v327
q0 16 -0.5 26t-4.5 28t-12 28.5t-24 19t-39 8.5q-79 0 -79 -110zM186 772h-88l84 145h118l84 -145h-87l-56 101z" />
    <glyph glyph-name="Otilde" unicode="&#xd5;" horiz-adv-x="463" 
d="M420 202q0 -29 -1 -48t-11 -53.5t-28 -55.5t-56 -38t-91 -17t-91 17t-55.5 38t-27.5 55.5t-11 53t-1 48.5v327q0 208 186 208q187 0 187 -208v-327zM154 529v-327q0 -22 1.5 -34.5t8 -34t24 -32.5t45.5 -11q23 0 39 8.5t24 19.5t12 29t4.5 28.5t0.5 26.5v327
q0 16 -0.5 26t-4.5 28t-12 28.5t-24 19t-39 8.5q-79 0 -79 -110zM169 772h-62q0 113 53 113q21 0 61.5 -19.5t49.5 -19.5q23 0 23 38h61q0 -112 -56 -112q-15 0 -57 18t-47 18q-23 0 -26 -36z" />
    <glyph glyph-name="Odieresis" unicode="&#xd6;" horiz-adv-x="463" 
d="M420 202q0 -29 -1 -48t-11 -53.5t-28 -55.5t-56 -38t-91 -17t-91 17t-55.5 38t-27.5 55.5t-11 53t-1 48.5v327q0 208 186 208q187 0 187 -208v-327zM154 529v-327q0 -22 1.5 -34.5t8 -34t24 -32.5t45.5 -11q23 0 39 8.5t24 19.5t12 29t4.5 28.5t0.5 26.5v327
q0 16 -0.5 26t-4.5 28t-12 28.5t-24 19t-39 8.5q-79 0 -79 -110zM194 772h-98v99h98v-99zM363 772h-98v99h98v-99z" />
    <glyph glyph-name="Oslash" unicode="&#xd8;" horiz-adv-x="463" 
d="M62 -17h-64l61 113q-12 56 -12 151v282q0 208 186 208q83 0 142 -53l30 56h63l-61 -114q13 -38 13 -169v-267q0 -88 -42 -144t-141 -56q-86 0 -143 53zM315 454l-158 -294q2 -13 2.5 -17.5t5.5 -18.5t12.5 -20.5t23 -12.5t36.5 -6q27 0 44.5 13t24 38.5t8 42.5t1.5 45
v230zM233 639q-27 0 -44.5 -11t-24 -31.5t-8 -33.5t-1.5 -34v-254l154 287q0 77 -76 77z" />
    <glyph glyph-name="Ugrave" unicode="&#xd9;" horiz-adv-x="481" 
d="M433 241q0 -28 -0.5 -44.5t-4 -46t-10.5 -48.5t-21 -42.5t-33.5 -37t-50 -23t-69.5 -9.5t-69.5 9.5t-50 23t-33.5 37t-20.5 42t-10 48.5t-4 46.5t-0.5 44.5v487h108v-487q0 -36 0.5 -53t4.5 -40.5t12 -33.5t23.5 -17.5t39.5 -7.5t39.5 7.5t23.5 17.5t12 33.5t4.5 40.5
t0.5 53v487h109v-487zM314 772h-82l-90 145h111z" />
    <glyph glyph-name="Uacute" unicode="&#xda;" horiz-adv-x="481" 
d="M433 241q0 -28 -0.5 -44.5t-4 -46t-10.5 -48.5t-21 -42.5t-33.5 -37t-50 -23t-69.5 -9.5t-69.5 9.5t-50 23t-33.5 37t-20.5 42t-10 48.5t-4 46.5t-0.5 44.5v487h108v-487q0 -36 0.5 -53t4.5 -40.5t12 -33.5t23.5 -17.5t39.5 -7.5t39.5 7.5t23.5 17.5t12 33.5t4.5 40.5
t0.5 53v487h109v-487zM275 772h-78l60 145h111z" />
    <glyph glyph-name="Ucircumflex" unicode="&#xdb;" horiz-adv-x="481" 
d="M433 241q0 -28 -0.5 -44.5t-4 -46t-10.5 -48.5t-21 -42.5t-33.5 -37t-50 -23t-69.5 -9.5t-69.5 9.5t-50 23t-33.5 37t-20.5 42t-10 48.5t-4 46.5t-0.5 44.5v487h108v-487q0 -36 0.5 -53t4.5 -40.5t12 -33.5t23.5 -17.5t39.5 -7.5t39.5 7.5t23.5 17.5t12 33.5t4.5 40.5
t0.5 53v487h109v-487zM191 772h-88l84 145h118l84 -145h-87l-56 101z" />
    <glyph glyph-name="Udieresis" unicode="&#xdc;" horiz-adv-x="481" 
d="M433 241q0 -28 -0.5 -44.5t-4 -46t-10.5 -48.5t-21 -42.5t-33.5 -37t-50 -23t-69.5 -9.5t-69.5 9.5t-50 23t-33.5 37t-20.5 42t-10 48.5t-4 46.5t-0.5 44.5v487h108v-487q0 -36 0.5 -53t4.5 -40.5t12 -33.5t23.5 -17.5t39.5 -7.5t39.5 7.5t23.5 17.5t12 33.5t4.5 40.5
t0.5 53v487h109v-487zM206 772h-98v99h98v-99zM375 772h-98v99h98v-99z" />
    <glyph glyph-name="germandbls" unicode="&#xdf;" 
d="M132 0h-97v493q0 28 0.5 44t3.5 44.5t8.5 46t17.5 39.5t29 34t43 21t60 9q74 0 115 -41.5t41 -127.5q0 -50 -19 -78t-59 -44q86 -7 86 -129v-150q0 -79 -37.5 -120t-101.5 -41h-54v84h31q26 0 41.5 15.5t19 30.5t3.5 31v150q0 6 -2 16.5t-8 28t-23 29t-41 11.5h-21v86
q18 2 25.5 3.5t22.5 6.5t22 12.5t13 22.5t6 35q0 81 -59 81q-16 0 -27.5 -5t-19 -17t-11.5 -22.5t-5.5 -31.5t-2 -34.5t-0.5 -39.5v-493z" />
    <glyph glyph-name="agrave" unicode="&#xe0;" 
d="M253 52q-31 -30 -55.5 -44.5t-58.5 -14.5q-59 0 -86 43.5t-27 102.5q0 48 12.5 83t31 55t51 33.5t60.5 18.5t72 9v20q0 56 -13.5 80.5t-44.5 24.5q-36 0 -47.5 -25t-11.5 -66h-101q0 176 160 176q37 0 65.5 -9t45 -27t27 -35t14.5 -42.5t5 -40t1 -36.5v-358h-100v52z
M253 258q-66 -11 -90 -26q-36 -25 -36 -76q0 -68 56 -68q9 0 19.5 4t16.5 8l18 12.5l16 11.5v134zM265 593h-82l-90 145h111z" />
    <glyph glyph-name="aacute" unicode="&#xe1;" 
d="M253 52q-31 -30 -55.5 -44.5t-58.5 -14.5q-59 0 -86 43.5t-27 102.5q0 48 12.5 83t31 55t51 33.5t60.5 18.5t72 9v20q0 56 -13.5 80.5t-44.5 24.5q-36 0 -47.5 -25t-11.5 -66h-101q0 176 160 176q37 0 65.5 -9t45 -27t27 -35t14.5 -42.5t5 -40t1 -36.5v-358h-100v52z
M253 258q-66 -11 -90 -26q-36 -25 -36 -76q0 -68 56 -68q9 0 19.5 4t16.5 8l18 12.5l16 11.5v134zM225 593h-78l60 145h111z" />
    <glyph glyph-name="acircumflex" unicode="&#xe2;" 
d="M253 52q-31 -30 -55.5 -44.5t-58.5 -14.5q-59 0 -86 43.5t-27 102.5q0 48 12.5 83t31 55t51 33.5t60.5 18.5t72 9v20q0 56 -13.5 80.5t-44.5 24.5q-36 0 -47.5 -25t-11.5 -66h-101q0 176 160 176q37 0 65.5 -9t45 -27t27 -35t14.5 -42.5t5 -40t1 -36.5v-358h-100v52z
M253 258q-66 -11 -90 -26q-36 -25 -36 -76q0 -68 56 -68q9 0 19.5 4t16.5 8l18 12.5l16 11.5v134zM143 593h-88l84 145h118l84 -145h-87l-56 101z" />
    <glyph glyph-name="atilde" unicode="&#xe3;" 
d="M253 52q-31 -30 -55.5 -44.5t-58.5 -14.5q-59 0 -86 43.5t-27 102.5q0 48 12.5 83t31 55t51 33.5t60.5 18.5t72 9v20q0 56 -13.5 80.5t-44.5 24.5q-36 0 -47.5 -25t-11.5 -66h-101q0 176 160 176q37 0 65.5 -9t45 -27t27 -35t14.5 -42.5t5 -40t1 -36.5v-358h-100v52z
M253 258q-66 -11 -90 -26q-36 -25 -36 -76q0 -68 56 -68q9 0 19.5 4t16.5 8l18 12.5l16 11.5v134zM136 593h-62q0 113 53 113q21 0 61.5 -19.5t49.5 -19.5q23 0 23 38h61q0 -112 -56 -112q-15 0 -57 18t-47 18q-23 0 -26 -36z" />
    <glyph glyph-name="adieresis" unicode="&#xe4;" 
d="M253 52q-31 -30 -55.5 -44.5t-58.5 -14.5q-59 0 -86 43.5t-27 102.5q0 48 12.5 83t31 55t51 33.5t60.5 18.5t72 9v20q0 56 -13.5 80.5t-44.5 24.5q-36 0 -47.5 -25t-11.5 -66h-101q0 176 160 176q37 0 65.5 -9t45 -27t27 -35t14.5 -42.5t5 -40t1 -36.5v-358h-100v52z
M253 258q-66 -11 -90 -26q-36 -25 -36 -76q0 -68 56 -68q9 0 19.5 4t16.5 8l18 12.5l16 11.5v134zM158 593h-98v99h98v-99zM327 593h-98v99h98v-99z" />
    <glyph glyph-name="aring" unicode="&#xe5;" 
d="M253 52q-31 -30 -55.5 -44.5t-58.5 -14.5q-59 0 -86 43.5t-27 102.5q0 48 12.5 83t31 55t51 33.5t60.5 18.5t72 9v20q0 56 -13.5 80.5t-44.5 24.5q-36 0 -47.5 -25t-11.5 -66h-101q0 176 160 176q37 0 65.5 -9t45 -27t27 -35t14.5 -42.5t5 -40t1 -36.5v-358h-100v52z
M253 258q-66 -11 -90 -26q-36 -25 -36 -76q0 -68 56 -68q9 0 19.5 4t16.5 8l18 12.5l16 11.5v134zM304 654q0 -38 -28.5 -61t-72.5 -23t-73 23t-29 61q0 40 29 62.5t73 22.5t72.5 -22.5t28.5 -62.5zM203 696q-17 0 -30 -12t-13 -28q0 -17 13 -30.5t30 -13.5t30 13.5t13 30.5
q0 16 -13 28t-30 12z" />
    <glyph glyph-name="ae" unicode="&#xe6;" horiz-adv-x="611" 
d="M302 67q-11 -18 -16 -24.5t-20 -21.5t-36.5 -21.5t-51.5 -6.5q-69 0 -109 44.5t-40 122.5q0 34 8.5 60.5t20.5 44t33 30.5t38 19.5t44 11t41.5 5.5t40.5 2q0 70 -10.5 99.5t-44.5 29.5q-63 0 -63 -90h-100q0 73 35 124.5t111 51.5q85 0 121 -73q12 25 42.5 49t71.5 24
q39 0 68.5 -10.5t46.5 -30t28 -38.5t15 -43.5t5 -36.5t1 -27v-116h-229q0 -37 0.5 -53t2 -40t5.5 -34t11 -21t18.5 -14.5t27.5 -3.5q18 0 31 7t19.5 15.5t9.5 25.5t3.5 27.5t0.5 31.5h98q0 -27 -1 -44.5t-9.5 -49t-24 -50.5t-48.5 -34.5t-79 -15.5q-26 0 -46.5 6.5
t-34.5 20.5t-19.5 22t-15.5 25zM255 257q-20 -2 -32 -3.5t-32.5 -7.5t-32 -15.5t-21 -27.5t-9.5 -43q0 -33 15.5 -56.5t42.5 -23.5q70 0 70 91q0 14 -0.5 42.5t-0.5 43.5zM484 335q0 23 -0.5 36.5t-4 33t-10 30t-19.5 18.5t-32 8t-32 -8t-19 -18.5t-9.5 -30.5t-4 -32.5
t-0.5 -36.5h131z" />
    <glyph glyph-name="ccedilla" unicode="&#xe7;" horiz-adv-x="370" 
d="M347 164q0 -171 -156 -171q-162 0 -162 171v213q0 14 1 24.5t5 33.5t14.5 40t27 35t46 28t68.5 10q156 0 156 -171v-25h-95v25q0 85 -61 85q-64 0 -64 -85v-213q0 -17 1 -27t6.5 -25.5t19.5 -23.5t37 -8q61 0 61 84v36h95v-36zM183 -169h-111l82 133h83z" />
    <glyph glyph-name="egrave" unicode="&#xe8;" 
d="M358 184q0 -29 -2 -50.5t-11.5 -50t-26.5 -46.5t-48.5 -31t-75.5 -13q-162 0 -162 191v191q0 14 1 27.5t10 42.5t24.5 49.5t48.5 37t79 16.5q163 0 163 -173v-130h-228v-61q0 -19 0.5 -29t3.5 -26.5t9.5 -25.5t19.5 -16t31 -7q23 0 38 10t20 29t6.5 31.5t1.5 33.5h98z
M198 463q-68 0 -68 -88v-40h130v40q0 88 -62 88zM259 593h-82l-90 145h111z" />
    <glyph glyph-name="eacute" unicode="&#xe9;" 
d="M358 184q0 -29 -2 -50.5t-11.5 -50t-26.5 -46.5t-48.5 -31t-75.5 -13q-162 0 -162 191v191q0 14 1 27.5t10 42.5t24.5 49.5t48.5 37t79 16.5q163 0 163 -173v-130h-228v-61q0 -19 0.5 -29t3.5 -26.5t9.5 -25.5t19.5 -16t31 -7q23 0 38 10t20 29t6.5 31.5t1.5 33.5h98z
M198 463q-68 0 -68 -88v-40h130v40q0 88 -62 88zM227 593h-78l60 145h111z" />
    <glyph glyph-name="ecircumflex" unicode="&#xea;" 
d="M358 184q0 -29 -2 -50.5t-11.5 -50t-26.5 -46.5t-48.5 -31t-75.5 -13q-162 0 -162 191v191q0 14 1 27.5t10 42.5t24.5 49.5t48.5 37t79 16.5q163 0 163 -173v-130h-228v-61q0 -19 0.5 -29t3.5 -26.5t9.5 -25.5t19.5 -16t31 -7q23 0 38 10t20 29t6.5 31.5t1.5 33.5h98z
M198 463q-68 0 -68 -88v-40h130v40q0 88 -62 88zM141 593h-88l84 145h118l84 -145h-87l-56 101z" />
    <glyph glyph-name="edieresis" unicode="&#xeb;" 
d="M358 184q0 -29 -2 -50.5t-11.5 -50t-26.5 -46.5t-48.5 -31t-75.5 -13q-162 0 -162 191v191q0 14 1 27.5t10 42.5t24.5 49.5t48.5 37t79 16.5q163 0 163 -173v-130h-228v-61q0 -19 0.5 -29t3.5 -26.5t9.5 -25.5t19.5 -16t31 -7q23 0 38 10t20 29t6.5 31.5t1.5 33.5h98z
M198 463q-68 0 -68 -88v-40h130v40q0 88 -62 88zM162 593h-98v99h98v-99zM331 593h-98v99h98v-99z" />
    <glyph glyph-name="igrave" unicode="&#xec;" horiz-adv-x="222" 
d="M161 0h-98v541h98v-541zM175 593h-82l-90 145h111z" />
    <glyph glyph-name="iacute" unicode="&#xed;" horiz-adv-x="222" 
d="M161 0h-98v541h98v-541zM135 593h-78l60 145h111z" />
    <glyph glyph-name="icircumflex" unicode="&#xee;" horiz-adv-x="222" 
d="M161 0h-98v541h98v-541zM55 593h-88l84 145h118l84 -145h-87l-56 101z" />
    <glyph glyph-name="idieresis" unicode="&#xef;" horiz-adv-x="222" 
d="M161 0h-98v541h98v-541zM74 593h-98v99h98v-99zM243 593h-98v99h98v-99z" />
    <glyph glyph-name="ntilde" unicode="&#xf1;" 
d="M134 0h-100v541h96v-53q1 0 14.5 11.5t18 14.5l18.5 12t24.5 12t26 6.5t31.5 3.5q23 0 39.5 -5t26.5 -19t16 -26.5t8.5 -39.5t3 -44t0.5 -54v-360h-99v360q0 39 -1.5 55.5t-12 29t-32.5 12.5q-36 0 -78 -42v-415zM137 593h-62q0 113 53 113q21 0 61.5 -19.5t49.5 -19.5
q23 0 23 38h61q0 -112 -56 -112q-15 0 -57 18t-47 18q-23 0 -26 -36z" />
    <glyph glyph-name="ograve" unicode="&#xf2;" 
d="M356 191q0 -20 -0.5 -31.5t-3.5 -35t-8.5 -38.5t-18 -34.5t-29 -31t-43 -19.5t-60.5 -8q-46 0 -79 15.5t-49 34.5t-24.5 51.5t-9.5 50.5t-1 46v163q0 195 163 195t163 -195v-163zM127 354v-163q0 -23 1.5 -36.5t6.5 -34t20 -31t38 -10.5t37.5 9.5t20 29.5t6.5 33.5
t1 39.5v163q0 24 -1 36.5t-6.5 32.5t-20 29.5t-37.5 9.5q-19 0 -32 -7.5t-19.5 -17.5t-10 -27t-4 -27.5t-0.5 -28.5zM237 593h-82l-90 145h111z" />
    <glyph glyph-name="oacute" unicode="&#xf3;" 
d="M356 191q0 -20 -0.5 -31.5t-3.5 -35t-8.5 -38.5t-18 -34.5t-29 -31t-43 -19.5t-60.5 -8q-46 0 -79 15.5t-49 34.5t-24.5 51.5t-9.5 50.5t-1 46v163q0 195 163 195t163 -195v-163zM127 354v-163q0 -23 1.5 -36.5t6.5 -34t20 -31t38 -10.5t37.5 9.5t20 29.5t6.5 33.5
t1 39.5v163q0 24 -1 36.5t-6.5 32.5t-20 29.5t-37.5 9.5q-19 0 -32 -7.5t-19.5 -17.5t-10 -27t-4 -27.5t-0.5 -28.5zM235 593h-78l60 145h111z" />
    <glyph glyph-name="ocircumflex" unicode="&#xf4;" 
d="M356 191q0 -20 -0.5 -31.5t-3.5 -35t-8.5 -38.5t-18 -34.5t-29 -31t-43 -19.5t-60.5 -8q-46 0 -79 15.5t-49 34.5t-24.5 51.5t-9.5 50.5t-1 46v163q0 195 163 195t163 -195v-163zM127 354v-163q0 -23 1.5 -36.5t6.5 -34t20 -31t38 -10.5t37.5 9.5t20 29.5t6.5 33.5
t1 39.5v163q0 24 -1 36.5t-6.5 32.5t-20 29.5t-37.5 9.5q-19 0 -32 -7.5t-19.5 -17.5t-10 -27t-4 -27.5t-0.5 -28.5zM135 593h-88l84 145h118l84 -145h-87l-56 101z" />
    <glyph glyph-name="otilde" unicode="&#xf5;" 
d="M356 191q0 -20 -0.5 -31.5t-3.5 -35t-8.5 -38.5t-18 -34.5t-29 -31t-43 -19.5t-60.5 -8q-46 0 -79 15.5t-49 34.5t-24.5 51.5t-9.5 50.5t-1 46v163q0 195 163 195t163 -195v-163zM127 354v-163q0 -23 1.5 -36.5t6.5 -34t20 -31t38 -10.5t37.5 9.5t20 29.5t6.5 33.5
t1 39.5v163q0 24 -1 36.5t-6.5 32.5t-20 29.5t-37.5 9.5q-19 0 -32 -7.5t-19.5 -17.5t-10 -27t-4 -27.5t-0.5 -28.5zM126 593h-62q0 113 53 113q21 0 61.5 -19.5t49.5 -19.5q23 0 23 38h61q0 -112 -56 -112q-15 0 -57 18t-47 18q-23 0 -26 -36z" />
    <glyph glyph-name="odieresis" unicode="&#xf6;" 
d="M356 191q0 -20 -0.5 -31.5t-3.5 -35t-8.5 -38.5t-18 -34.5t-29 -31t-43 -19.5t-60.5 -8q-46 0 -79 15.5t-49 34.5t-24.5 51.5t-9.5 50.5t-1 46v163q0 195 163 195t163 -195v-163zM127 354v-163q0 -23 1.5 -36.5t6.5 -34t20 -31t38 -10.5t37.5 9.5t20 29.5t6.5 33.5
t1 39.5v163q0 24 -1 36.5t-6.5 32.5t-20 29.5t-37.5 9.5q-19 0 -32 -7.5t-19.5 -17.5t-10 -27t-4 -27.5t-0.5 -28.5zM154 593h-98v99h98v-99zM323 593h-98v99h98v-99z" />
    <glyph glyph-name="divide" unicode="&#xf7;" horiz-adv-x="741" 
d="M588 262h-436v72h436v-72zM429 430q0 -24 -17.5 -41.5t-41.5 -17.5t-41.5 17.5t-17.5 41.5t17.5 41.5t41.5 17.5t41.5 -17.5t17.5 -41.5zM429 166q0 -24 -17.5 -41.5t-41.5 -17.5t-41.5 17.5t-17.5 41.5t17.5 41.5t41.5 17.5t41.5 -17.5t17.5 -41.5z" />
    <glyph glyph-name="oslash" unicode="&#xf8;" 
d="M53 -15h-61l53 87q-15 71 -15 157v145q0 18 2.5 36.5t12.5 44.5t26 45.5t48 33.5t74 14q55 0 117 -40l24 40h61l-51 -85q12 -51 12 -136v-139q0 -22 -1 -35.5t-5 -40t-14.5 -44.5t-27.5 -37t-46.5 -28.5t-68.5 -9.5q-13 0 -23 0.5t-20 3t-15.5 4t-15 6t-12.5 6.5t-13.5 8
t-13.5 8zM193 462q-66 0 -66 -88v-167l126 207q0 15 -14.5 31.5t-45.5 16.5zM263 329l-126 -206q6 -14 9.5 -20.5t18 -16t36.5 -9.5q27 0 41.5 17t17.5 38t3 56v141z" />
    <glyph glyph-name="ugrave" unicode="&#xf9;" 
d="M256 53q-75 -60 -132 -60q-22 0 -38.5 7.5t-26 24.5t-15.5 32.5t-8.5 42.5t-3 42.5t-0.5 44.5v354h100v-354q0 -21 0.5 -32t3 -27.5t7 -24.5t14.5 -14.5t24 -6.5q19 0 41.5 15t33.5 29v415h99v-541h-99v53zM264 593h-82l-90 145h111z" />
    <glyph glyph-name="uacute" unicode="&#xfa;" 
d="M256 53q-75 -60 -132 -60q-22 0 -38.5 7.5t-26 24.5t-15.5 32.5t-8.5 42.5t-3 42.5t-0.5 44.5v354h100v-354q0 -21 0.5 -32t3 -27.5t7 -24.5t14.5 -14.5t24 -6.5q19 0 41.5 15t33.5 29v415h99v-541h-99v53zM230 593h-78l60 145h111z" />
    <glyph glyph-name="ucircumflex" unicode="&#xfb;" 
d="M256 53q-75 -60 -132 -60q-22 0 -38.5 7.5t-26 24.5t-15.5 32.5t-8.5 42.5t-3 42.5t-0.5 44.5v354h100v-354q0 -21 0.5 -32t3 -27.5t7 -24.5t14.5 -14.5t24 -6.5q19 0 41.5 15t33.5 29v415h99v-541h-99v53zM139 593h-88l84 145h118l84 -145h-87l-56 101z" />
    <glyph glyph-name="udieresis" unicode="&#xfc;" 
d="M256 53q-75 -60 -132 -60q-22 0 -38.5 7.5t-26 24.5t-15.5 32.5t-8.5 42.5t-3 42.5t-0.5 44.5v354h100v-354q0 -21 0.5 -32t3 -27.5t7 -24.5t14.5 -14.5t24 -6.5q19 0 41.5 15t33.5 29v415h99v-541h-99v53zM162 593h-98v99h98v-99zM331 593h-98v99h98v-99z" />
    <glyph glyph-name="ydieresis" unicode="&#xff;" 
d="M274 112q-39 -156 -55 -193q-30 -68 -83 -82q-21 -6 -47 -6q-29 0 -57 3v85q18 -2 30 -2q28 0 53.5 14.5t25.5 50.5q0 24 -26 130l-108 429h100l92 -386l85 386h97zM158 593h-98v99h98v-99zM327 593h-98v99h98v-99z" />
    <glyph glyph-name="dotlessi" unicode="&#x131;" horiz-adv-x="222" 
d="M161 0h-98v541h98v-541z" />
    <glyph glyph-name="OE" unicode="&#x152;" horiz-adv-x="630" 
d="M407 0q-8 0 -65 -5t-76 -5q-47 0 -83.5 9.5t-60 22.5t-40 36.5t-24.5 41.5t-12 47.5t-4.5 44.5t-0.5 42v279q0 44 9 79.5t21.5 57.5t34.5 38t39 23.5t43.5 11.5t40.5 4.5t37 0.5h323v-97h-182v-207h168v-97h-168v-230h203v-97h-203zM147 513v-279q0 -27 1 -41t7 -37
t17.5 -35t35.5 -21.5t58 -9.5h39v541h-39q-67 0 -93 -28t-26 -90z" />
    <glyph glyph-name="oe" unicode="&#x153;" horiz-adv-x="611" 
d="M302 68q-11 -28 -40 -51.5t-68 -23.5q-163 0 -163 190v185q0 16 1 30.5t9.5 44.5t24 50.5t49 37.5t79.5 17q40 0 71.5 -22.5t38.5 -52.5q13 29 49.5 52t70.5 23q65 0 111 -44.5t46 -144.5v-115h-228q0 -37 0.5 -53.5t2 -40t6 -32.5t12 -20t19 -14t28.5 -3q22 0 35.5 9
t19 28t6.5 32t1 38h98q0 -195 -153 -195q-29 0 -50.5 6.5t-37.5 21.5t-21 21.5t-17 25.5zM130 368v-185q0 -18 0.5 -27.5t3.5 -25.5t9.5 -24.5t19.5 -15t31 -6.5q19 0 32 6.5t19 15t9.5 24.5t4 25.5t0.5 27.5v185q0 91 -65 91q-64 0 -64 -91zM483 334q0 33 -1 49t-7 37
t-20 30t-37 9q-19 0 -32 -7.5t-19 -17.5t-9.5 -29.5t-4 -32.5t-0.5 -38h130z" />
    <glyph glyph-name="Ydieresis" unicode="&#x178;" horiz-adv-x="463" 
d="M292 0h-112v305l-167 423h114l109 -285l109 285h113l-166 -423v-305zM198 772h-98v99h98v-99zM367 772h-98v99h98v-99z" />
    <glyph glyph-name="florin" unicode="&#x192;" horiz-adv-x="444" 
d="M171 0h-93l92 451h-64l17 90h63q4 13 10.5 40.5t11.5 44t16.5 39t26.5 35t41 22t60 9.5q6 0 39 -5l-16 -80q-21 3 -22 3q-17 0 -29 -6.5t-19.5 -19.5t-11 -24.5t-8 -30.5t-7.5 -27h71l-17 -90h-70z" />
    <glyph glyph-name="circumflex" unicode="&#x2c6;" horiz-adv-x="255" 
d="M55 593h-88l84 145h118l84 -145h-87l-56 101z" />
    <glyph glyph-name="caron" unicode="&#x2c7;" horiz-adv-x="259" 
d="M174 593h-121l-84 145h89l56 -96l55 96h89z" />
    <glyph glyph-name="breve" unicode="&#x2d8;" horiz-adv-x="246" 
d="M245 738q0 -13 -6.5 -34.5t-20.5 -47.5t-44 -44.5t-69 -18.5t-69 18.5t-44.5 45t-21 47.5t-6.5 34h69q0 -21 19.5 -44t52.5 -23q34 0 52.5 23t18.5 44h69z" />
    <glyph glyph-name="dotaccent" unicode="&#x2d9;" horiz-adv-x="163" 
d="M162 593h-97v99h97v-99z" />
    <glyph glyph-name="ring" unicode="&#x2da;" horiz-adv-x="216" 
d="M214 654q0 -38 -28.5 -61t-72.5 -23t-73 23t-29 61q0 40 29 62.5t73 22.5t72.5 -22.5t28.5 -62.5zM113 696q-17 0 -30 -12t-13 -28q0 -17 13 -30.5t30 -13.5t30 13.5t13 30.5q0 16 -13 28t-30 12z" />
    <glyph glyph-name="ogonek" unicode="&#x2db;" horiz-adv-x="178" 
d="M190 -169h-111l-54 133h83z" />
    <glyph glyph-name="tilde" unicode="&#x2dc;" horiz-adv-x="232" 
d="M44 593h-62q0 113 53 113q21 0 61.5 -19.5t49.5 -19.5q23 0 23 38h61q0 -112 -56 -112q-15 0 -57 18t-47 18q-23 0 -26 -36z" />
    <glyph glyph-name="hungarumlaut" unicode="&#x2dd;" horiz-adv-x="318" 
d="M67 593h-76l58 145h110zM225 593h-76l59 145h109z" />
    <glyph glyph-name="pi" unicode="&#x3c0;" horiz-adv-x="610" 
d="M102 401q-32 -18 -47 -56h-19q4 26 21.5 58t35.5 48q51 46 138 46h335v-83h-135l-9 -125q-4 -22 -3.5 -82.5t15.5 -96.5q13 -30 54 -33q15 -1 32 8t25 26q9 24 8 41h20q3 -20 -7 -56.5t-23 -57.5t-38.5 -36t-49.5 -14q-28 1 -51.5 20t-32.5 44q-13 37 -15.5 72t0.5 70
q1 22 4.5 56t4.5 46l11 117h-124l-7 -75q-6 -69 -19 -161q-13 -86 -30 -146q-4 -14 -23.5 -31.5t-39.5 -15.5q-21 2 -34.5 15.5t-14.5 36.5q-1 22 32.5 56.5t38.5 49.5q23 66 31 169l9 102q-11 3 -45.5 -0.5t-47.5 -11.5z" />
    <glyph glyph-name="endash" unicode="&#x2013;" horiz-adv-x="444" 
d="M405 257h-364v71h364v-71z" />
    <glyph glyph-name="emdash" unicode="&#x2014;" horiz-adv-x="741" 
d="M642 256h-543v73h543v-73z" />
    <glyph glyph-name="quoteleft" unicode="&#x2018;" horiz-adv-x="204" 
d="M167 476h-118v118l60 134h55l-42 -133h45v-119z" />
    <glyph glyph-name="quoteright" unicode="&#x2019;" horiz-adv-x="204" 
d="M107 476h-54l41 132h-45v120h118v-118z" />
    <glyph glyph-name="quotesinglbase" unicode="&#x201a;" horiz-adv-x="204" 
d="M98 -133h-55l42 133h-45v120h118v-119z" />
    <glyph glyph-name="quotedblleft" unicode="&#x201c;" horiz-adv-x="352" 
d="M158 476h-118v118l60 134h54l-41 -133h45v-119zM316 476h-118v118l60 134h55l-42 -133h45v-119z" />
    <glyph glyph-name="quotedblright" unicode="&#x201d;" horiz-adv-x="352" 
d="M98 476h-55l42 132h-45v120h118v-118zM256 476h-54l41 132h-45v120h118v-118z" />
    <glyph glyph-name="quotedblbase" unicode="&#x201e;" horiz-adv-x="352" 
d="M98 -133h-55l42 133h-45v120h118v-119zM256 -133h-54l41 133h-45v120h118v-119z" />
    <glyph glyph-name="dagger" unicode="&#x2020;" horiz-adv-x="444" 
d="M260 0h-80v469h-149v73h149v186h80v-186h149v-73h-149v-469z" />
    <glyph glyph-name="daggerdbl" unicode="&#x2021;" horiz-adv-x="444" 
d="M262 0h-81v162h-150v74h150v251h-150v74h150v167h81v-167h150v-74h-150v-251h150v-74h-150v-162z" />
    <glyph glyph-name="bullet" unicode="&#x2022;" horiz-adv-x="444" 
d="M41 365q1 74 55.5 126t128.5 52q76 0 127.5 -54t51.5 -131q0 -76 -53.5 -129t-127.5 -51q-76 3 -129.5 57.5t-52.5 129.5z" />
    <glyph glyph-name="ellipsis" unicode="&#x2026;" horiz-adv-x="741" 
d="M176 0h-100v102h100v-102zM421 0h-100v102h100v-102zM666 0h-100v102h100v-102z" />
    <glyph glyph-name="perthousand" unicode="&#x2030;" horiz-adv-x="1056" 
d="M315 457q0 -133 -128 -133t-128 133v142q0 12 1 23t7.5 34t19 38.5t38.5 28t62 12.5q128 0 128 -136v-142zM256 -77h-75l286 829h75zM685 123q0 -133 -128 -133t-128 133v142q0 17 2.5 32t13 43t39.5 45t73 17q128 0 128 -137v-142zM997 123q0 -133 -128 -133t-128 133
v142q0 17 2.5 32t13 43t39.5 45t73 17q128 0 128 -137v-142zM505 265v-142q0 -68 52 -68q51 0 51 68v142q0 71 -51 71q-23 0 -36 -17t-14.5 -29.5t-1.5 -24.5zM135 599v-142q0 -68 52 -68q51 0 51 68v142q0 71 -51 71q-23 0 -36 -17t-14.5 -29.5t-1.5 -24.5zM817 265v-142
q0 -68 52 -68t52 68v142q0 71 -52 71q-23 0 -36 -17t-14.5 -29.5t-1.5 -24.5z" />
    <glyph glyph-name="guilsinglleft" unicode="&#x2039;" horiz-adv-x="204" 
d="M174 97h-77l-68 202l71 198h73l-59 -198z" />
    <glyph glyph-name="guilsinglright" unicode="&#x203a;" horiz-adv-x="204" 
d="M111 97h-73l58 198l-59 202h77l67 -202z" />
    <glyph glyph-name="fraction" unicode="&#x2044;" horiz-adv-x="378" 
d="M93 -77h-75l286 829h75z" />
    <glyph glyph-name="trademark" unicode="&#x2122;" horiz-adv-x="610" 
d="M66 690v38h190v-38h-74v-255h-41v255h-75zM287 435v293h83l49 -249h7l42 249h80v-292h-37v267h-12l-53 -267h-51l-55 265h-14v-266h-39z" />
    <glyph glyph-name="Omega" unicode="&#x2126;" horiz-adv-x="777" 
d="M142 198q-43 30 -68.5 84t-25.5 117q0 133 96 213q100 83 251 80q150 -3 234 -71q104 -85 104 -223q0 -106 -67 -176q-32 -32 -76 -57t-85 -31l-2 -33h156h11.5h12.5t10.5 1t11 2.5t8.5 4.5t9 7q20 23 16 53h18v-169h-307l19 157q82 30 116 94q33 64 33 157
q0 101 -47 174q-50 77 -174 79q-71 2 -117 -20t-78 -75q-41 -68 -38 -174q2 -92 39 -152q36 -59 110 -84l16 -157h-305l-1 170h17q-3 -28 16 -49q15 -16 55 -16l163 -1l1 29q-25 5 -52.5 17.5t-39 20.5z" />
    <glyph glyph-name="partialdiff" unicode="&#x2202;" horiz-adv-x="555" 
d="M240 708q-54 -1 -103 -34l-34 48q56 29 128 31q105 1 183 -80q71 -74 87 -194q16 -111 -14 -243q-24 -106 -83 -184q-53 -70 -162 -68q-53 2 -97.5 29t-67.5 74q-32 66 -9 156q21 87 98 136q61 38 145 21q20 -4 57 -26t53 -41q20 73 4 189q-15 109 -77 158
q-37 30 -108 28zM379 145q32 105 29 156q-36 70 -115 67q-59 -1 -98 -56q-47 -64 -53 -130q-7 -76 16 -120q26 -51 86 -51q40 0 78.5 38.5t56.5 95.5z" />
    <glyph glyph-name="Delta" unicode="&#x2206;" horiz-adv-x="758" 
d="M696 -1h-623l332 688zM573 46l-206 478l-229 -478h435z" />
    <glyph glyph-name="product" unicode="&#x220f;" horiz-adv-x="832" 
d="M84 686q-13 12 -35 18.5t-41 4.5v24h809v-23q-13 0 -33 -6.5t-31 -16.5q-39 -36 -39 -133v-547q0 -80 23 -99q12 -10 43 -17t40 -6v-18h-317v20q10 -2 38.5 5t40.5 15q9 6 14 14.5t7 20.5t2 20t-0.5 24.5t-0.5 23.5v666h-382v-655q0 -88 20 -108q16 -16 42 -22t43 -3v-21
h-319v21q11 -3 41.5 4.5t43.5 16.5q7 5 11 12.5t6 21t2.5 20.5t0 27t-0.5 23v542q0 3 0.5 23t0 30t-3 27t-9 29.5t-16.5 21.5z" />
    <glyph glyph-name="summation" unicode="&#x2211;" horiz-adv-x="666" 
d="M345 278l-362 460q5 0 17 -1t20 -2q20 -2 69 -2h521v-162h-17q-5 48 -40 84q-22 23 -61 29t-102 6h-240l289 -371l-306 -340h336h22.5h24t21.5 0.5t21.5 2l18 3.5t18 6t13.5 9q22 19 39.5 47t21.5 50l18 -5q-17 -67 -24 -106q-13 -72 -17 -119q-32 9 -38 10q-31 4 -93 4
h-528z" />
    <glyph glyph-name="radical" unicode="&#x221a;" horiz-adv-x="500" 
d="M111 485l-99 -46l-13 33l147 68l207 -411l136 814l31 -5l-156 -951z" />
    <glyph glyph-name="infinity" unicode="&#x221e;" horiz-adv-x="741" 
d="M70 197q-42 39 -45 93q-3 63 50 109q36 32 99 34q62 1 137 -58l60 -49l35 30q93 79 160 79q72 0 114 -48q36 -41 36 -91q0 -51 -37 -92q-41 -47 -104 -47q-88 1 -165 70l-41 37l-38 -37q-68 -65 -154 -69q-61 -3 -107 39zM407 296l31 -30q66 -62 127 -63q37 -1 67.5 24
t31.5 61q1 37 -27 64.5t-66 27.5q-23 0 -45 -8t-35 -16.5l-39 -26.5q-5 -3 -7 -5zM303 267l31 30l-38 28q-2 2 -7 5q-25 18 -38.5 26.5t-35.5 16.5t-45 8q-38 0 -66 -27.5t-27 -64.5q1 -36 31.5 -61t67.5 -24q61 1 127 63z" />
    <glyph glyph-name="integral" unicode="&#x222b;" horiz-adv-x="296" 
d="M166 900q24 46 65 49q36 3 54 -15t15 -46q-3 -21 -19 -30t-37 -7q-10 1 -28 12.5t-28 4.5q-4 -3 -6.5 -6.5t-3.5 -9t-1 -8.5v-11v-10q1 -16 7 -80t7 -94q0 -17 1 -44t1 -43v-261q0 -69 -9 -137q-2 -11 -7 -55t-8 -60t-10.5 -43.5t-18.5 -46.5q-10 -18 -35 -29.5t-45 -9.5
q-22 1 -39 18.5t-17 36.5t12 32.5t30 13.5q17 1 34.5 -14.5t27.5 -12.5q19 6 22 58v124q0 23 -2 60t-2 60v291q0 114 9 192q8 81 31 121z" />
    <glyph glyph-name="approxequal" unicode="&#x2248;" horiz-adv-x="741" 
d="M141 163l-41 26q26 27 41 40t41 25.5t54 12.5q55 2 133 -22t112 -27q23 -2 43 4t30.5 13t25.5 20.5t21 17.5l34 -31l-18.5 -19t-21.5 -20.5t-22 -15.5t-31.5 -13.5t-38.5 -5.5q-46 -2 -138 27t-129 26q-10 -1 -20 -4t-16.5 -5.5t-16 -10t-13 -10.5t-15 -14zM140 316
l-41 26q26 27 41 40t41 25.5t54 12.5q55 2 133 -22t112 -27q23 -2 43 3.5t30 12.5t25.5 21t21.5 18l34 -31l-18.5 -19t-21.5 -20.5t-22 -15.5t-31.5 -13.5t-38.5 -5.5q-46 -2 -138 27t-129 26q-10 -1 -20 -4t-16.5 -5.5t-16 -10t-13 -10.5t-15 -14z" />
    <glyph glyph-name="notequal" unicode="&#x2260;" horiz-adv-x="742" 
d="M96 352v54h308l96 164l51 -28l-79 -136h167v-54h-200l-82 -142h282v-53h-312l-96 -159l-49 25l78 134h-164v53h195l82 142h-277z" />
    <glyph glyph-name="lessequal" unicode="&#x2264;" horiz-adv-x="741" 
d="M619 557v-61l-449 -201l449 -206v-61l-514 237v58zM619 -37v-54h-514v54h514z" />
    <glyph glyph-name="greaterequal" unicode="&#x2265;" horiz-adv-x="741" 
d="M121 498v61l514 -234v-58l-514 -237v61l449 206zM121 -89v54h514v-54h-514z" />
    <glyph glyph-name="lozenge" unicode="&#x25ca;" horiz-adv-x="741" 
d="M142 382l201 374h58l202 -373l-204 -383h-57zM549 383l-178 325l-177 -326l177 -331z" />
    <glyph glyph-name="apple" unicode="&#xf8ff;" horiz-adv-x="500" 
d="M81 0v341h346v-341h-346zM106 22h298v298h-298v-298z" />
    </font>
</defs>
</svg>
